<svg viewBox="0 0 512 512" xmlns="http://www.w3.org/2000/svg" xmlns:xlink="http://www.w3.org/1999/xlink"><linearGradient id="a" gradientTransform="matrix(1 0 0 -1 0 -11082)" gradientUnits="userSpaceOnUse" x1="0" x2="512" y1="-11338" y2="-11338"><stop offset="0" stop-color="#31d8ff"/><stop offset="1" stop-color="#ff80ff"/></linearGradient><path d="m512 256c0 141.386719-114.613281 256-256 256s-256-114.613281-256-256 114.613281-256 256-256 256 114.613281 256 256zm0 0" fill="url(#a)"/><g fill="#fff"><path d="m281.003906 260.160156c-15.027344 11.746094-15.304687 19.945313-15.304687 34.152344 0 5.195312-2.730469 11.203125-16.121094 11.203125-11.199219 0-15.027344-4.097656-15.027344-18.304687 0-23.5 10.382813-34.703126 18.308594-41.535157 9.015625-7.648437 24.320313-16.121093 24.320313-30.875 0-12.570312-10.933594-18.582031-24.59375-18.582031-27.871094 0-21.859376 21.039062-36.613282 21.039062-7.378906 0-16.394531-4.917968-16.394531-15.574218 0-14.753906 16.941406-36.613282 53.828125-36.613282 34.976562 0 58.199219 19.398438 58.199219 45.082032 0 25.6875-23.222657 44.269531-30.601563 50.007812zm-10.109375 85.25c0 11.203125-9.292969 21.039063-21.042969 21.039063-11.746093 0-20.765624-9.835938-20.765624-21.039063 0-11.476562 9.292968-21.039062 20.765624-21.039062 11.476563 0 21.042969 9.5625 21.042969 21.039062zm0 0"/><path d="m256 455.972656c-11.054688 0-22.105469-2.84375-31.964844-8.527344l-117.980468-68.035156c-19.753907-11.390625-32.023438-32.628906-32.023438-55.429687v-135.960938c0-22.800781 12.269531-44.039062 32.023438-55.429687l117.980468-68.035156c19.71875-11.367188 44.210938-11.367188 63.929688 0l117.980468 68.035156c19.753907 11.390625 32.023438 32.628906 32.023438 55.429687v135.960938c0 22.800781-12.269531 44.039062-32.023438 55.429687l-117.980468 68.035156c-9.859375 5.683594-20.910156 8.527344-31.964844 8.527344zm0-369.957031c-5.871094 0-11.742188 1.507813-16.976562 4.527344l-117.984376 68.035156c-10.492187 6.050781-17.007812 17.332031-17.007812 29.441406v135.960938c0 12.109375 6.515625 23.390625 17.007812 29.441406l117.984376 68.03125c10.472656 6.039063 23.480468 6.039063 33.953124 0l117.984376-68.03125c10.492187-6.050781 17.007812-17.332031 17.007812-29.441406v-135.960938c0-12.109375-6.515625-23.390625-17.007812-29.441406l-117.984376-68.035156c-5.234374-3.019531-11.105468-4.527344-16.976562-4.527344zm0 0"/></g></svg>